# xmcd
#
# Track frame offsets:
# 150
# 16843
# 36016
#
# Disc length: 805 seconds
#
#
# Revision: 0
# Processed by: cddbd v1.5.1PL0 Copyright (c) Steve Scherf et al.
# Submitted via: FreeRIP 2.90 
#
DISCID=16032303
DTITLE=Lonnie Shields - Promo
DYEAR=2004
DGENRE=Blues
TTITLE0=Blues Is On Fire
TTITLE1=Every Man Needs A Good Woman
TTITLE2=Going To The Juke Joint
EXTD=Bluesfestradio.com
EXTT0=
EXTT1=
EXTT2=
PLAYORDER=
